HIERARCHY
ROOT Hips
{
	OFFSET 0.000000 0.000000 0.000000
	CHANNELS 6 Xposition Yposition Zposition Xrotation Yrotation Zrotation
	JOINT LeftUpLeg_virtual
	{
		OFFSET 0.000000 0.000000 0.000000
		CHANNELS 3 Xrotation Yrotation Zrotation
		JOINT LeftUpLeg
		{
			OFFSET 15.427100 -6.655098 0.678600
			CHANNELS 3 Xrotation Yrotation Zrotation
			JOINT LeftLeg
			{
				OFFSET 4.081073 -39.591068 13.024000
				CHANNELS 3 Xrotation Yrotation Zrotation
				JOINT LeftFoot
				{
					OFFSET -4.081074 -37.707932 -15.979700
					CHANNELS 3 Xrotation Yrotation Zrotation
					JOINT LeftToeBase
					{
						OFFSET 5.346399 -15.068900 20.645000
						CHANNELS 3 Xrotation Yrotation Zrotation
						JOINT LeftToe_End
						{
							OFFSET 2.754700 0.931300 11.300900
							CHANNELS 3 Xrotation Yrotation Zrotation
							End Site
							{
								OFFSET 0 0 0
							}
						}
					}
				}
			}
		}
	}
	JOINT RightUpLeg_virtual
	{
		OFFSET 0.000000 0.000000 0.000000
		CHANNELS 3 Xrotation Yrotation Zrotation
		JOINT RightUpLeg
		{
			OFFSET -15.569500 -6.655098 0.678600
			CHANNELS 3 Xrotation Yrotation Zrotation
			JOINT RightLeg
			{
				OFFSET -4.081825 -39.591045 13.023800
				CHANNELS 3 Xrotation Yrotation Zrotation
				JOINT RightFoot
				{
					OFFSET 4.081824 -37.707954 -15.979600
					CHANNELS 3 Xrotation Yrotation Zrotation
					JOINT RightToeBase
					{
						OFFSET -5.346400 -15.068900 20.645000
						CHANNELS 3 Xrotation Yrotation Zrotation
						JOINT RightToe_End
						{
							OFFSET -2.754700 0.931300 11.300900
							CHANNELS 3 Xrotation Yrotation Zrotation
							End Site
							{
								OFFSET 0 0 0
							}
						}
					}
				}
			}
		}
	}
	JOINT Spine_virtual
	{
		OFFSET 0.000000 0.000000 0.000000
		CHANNELS 3 Xrotation Yrotation Zrotation
		JOINT Spine
		{
			OFFSET -0.279200 12.230698 -2.892100
			CHANNELS 3 Xrotation Yrotation Zrotation
			JOINT Spine1
			{
				OFFSET -0.232667 10.192268 -1.242267
				CHANNELS 3 Xrotation Yrotation Zrotation
				JOINT Spine1_split
				{
					OFFSET -0.232667 10.192268 -1.242267
					CHANNELS 3 Xrotation Yrotation Zrotation
					JOINT Spine2
					{
						OFFSET -0.232667 10.192268 -1.242267
						CHANNELS 3 Xrotation Yrotation Zrotation
						JOINT Neck_virtual
						{
							OFFSET 0.000000 0.000000 0.000000
							CHANNELS 3 Xrotation Yrotation Zrotation
							JOINT Neck
							{
								OFFSET -0.418800 17.814194 8.416900
								CHANNELS 3 Xrotation Yrotation Zrotation
								JOINT Head
								{
									OFFSET 0.000000 7.031097 3.806800
									CHANNELS 3 Xrotation Yrotation Zrotation
									JOINT HeadTop_End
									{
										OFFSET 0.000000 24.646606 12.978600
										CHANNELS 3 Xrotation Yrotation Zrotation
										End Site
										{
											OFFSET 0 0 0
										}
									}
								}
							}
						}
						JOINT LeftShoulder_virtual
						{
							OFFSET 0.000000 0.000000 0.000000
							CHANNELS 3 Xrotation Yrotation Zrotation
							JOINT LeftShoulder
							{
								OFFSET 8.476499 7.247704 -3.868750
								CHANNELS 3 Xrotation Yrotation Zrotation
								JOINT LeftShoulder_split
								{
									OFFSET 8.476499 7.247704 -3.868750
									CHANNELS 3 Xrotation Yrotation Zrotation
									JOINT LeftArm
									{
										OFFSET 9.308998 -2.777710 0.208600
										CHANNELS 3 Xrotation Yrotation Zrotation
										JOINT LeftForeArm
										{
											OFFSET 29.972298 0.000000 0.000000
											CHANNELS 3 Xrotation Yrotation Zrotation
											JOINT LeftHand
											{
												OFFSET 26.026505 0.000000 0.000000
												CHANNELS 3 Xrotation Yrotation Zrotation
												End Site
												{
													OFFSET 0 0 0
												}
											}
										}
									}
								}
							}
						}
						JOINT RightShoulder_virtual
						{
							OFFSET 0.000000 0.000000 0.000000
							CHANNELS 3 Xrotation Yrotation Zrotation
							JOINT RightShoulder
							{
								OFFSET -7.570500 7.247704 -3.868750
								CHANNELS 3 Xrotation Yrotation Zrotation
								JOINT RightShoulder_split
								{
									OFFSET -7.570500 7.247704 -3.868750
									CHANNELS 3 Xrotation Yrotation Zrotation
									JOINT RightArm
									{
										OFFSET -9.308998 -2.777710 0.208500
										CHANNELS 3 Xrotation Yrotation Zrotation
										JOINT RightForeArm
										{
											OFFSET -29.972300 0.000000 0.000000
											CHANNELS 3 Xrotation Yrotation Zrotation
											JOINT RightHand
											{
												OFFSET -26.026505 0.000000 0.000000
												CHANNELS 3 Xrotation Yrotation Zrotation
												End Site
												{
													OFFSET 0 0 0
												}
											}
										}
									}
								}
							}
						}
					}
				}
			}
		}
	}
}
MOTION
Frames: 9
Frame Time: 0.03333333
-61.966221 20.689072 -1.502174 0.000000 0.000000 0.000000 -46.785187 6.910417 103.438728 -32.984718 14.290549 -3.950550 65.014064 2.824921 -12.923988 -12.619208 -14.218121 2.586174 -7.023280 -3.943739 7.797442 0.000000 0.000000 0.000000 -56.638944 4.446042 107.477958 -49.059828 -19.023933 -33.197079 113.089075 2.012699 2.859323 -10.516973 2.524440 16.655992 13.116992 -0.835980 3.409856 0.000000 0.000000 0.000000 -48.672235 4.306474 98.660819 14.385164 -0.918904 -9.856349 17.779541 0.464389 -2.830490 0.132341 1.605822 -0.765599 0.000000 0.000000 0.000000 12.320433 1.179767 -2.433708 43.972693 7.413458 -10.944548 -4.072756 11.990459 -1.497171 0.000000 0.000000 0.000000 15.377667 2.077462 -2.708888 0.364052 -3.375666 -12.815412 0.491728 -12.498585 -0.175246 -56.247923 -7.154744 -21.961321 46.551284 -13.463219 11.288875 0.000000 0.000000 0.000000 16.432754 2.018551 -3.253917 5.268954 21.220523 -10.742326 -9.948473 -7.424787 2.882696 -22.421433 -4.611765 16.165746 22.793622 47.977793 -14.741821 0.000000 0.000000 0.000000 
-66.317566 16.818691 -0.431591 0.000000 0.000000 0.000000 -50.125037 -2.923762 109.819798 -26.652628 5.834334 -9.710097 63.301756 6.293435 -9.746928 -14.670891 -7.551941 1.003134 -9.191234 -3.611876 6.254599 0.000000 0.000000 0.000000 -58.361357 -5.839747 113.020759 -48.255737 -15.025849 -37.162626 112.262485 -0.944647 4.626225 -11.756305 -0.947237 18.462942 10.573650 -1.227377 3.788831 0.000000 0.000000 0.000000 -52.344886 -4.099473 103.865881 15.196985 -1.804951 -9.816521 17.700398 -0.033470 -1.722743 0.456404 2.709359 -0.374125 0.000000 0.000000 0.000000 11.974548 0.494824 -1.326582 40.508271 4.362606 -8.203425 -4.679037 4.501270 -1.324602 0.000000 0.000000 0.000000 15.065468 1.493643 -1.361927 0.071304 -3.692920 -16.958002 -1.090687 -11.799793 -0.290659 -60.210986 -0.938114 -25.462600 47.915126 -15.934751 13.036509 0.000000 0.000000 0.000000 16.495407 1.385403 -2.123080 5.079524 21.820199 -10.139288 -9.510798 -7.618745 2.697164 -18.938807 -3.259030 14.946252 26.554939 45.339523 -19.048416 0.000000 0.000000 0.000000 
-71.136337 15.096016 0.157791 0.000000 0.000000 0.000000 -52.926357 -11.204168 113.269815 -23.217941 -1.963657 -11.226249 60.821953 9.556335 -7.304698 -10.243182 -0.325119 -2.331681 -9.649924 -2.925025 4.550815 0.000000 0.000000 0.000000 -59.043318 -14.238024 115.570148 -44.266726 -13.145207 -41.616773 107.287068 -3.466362 5.939959 -11.115750 -1.981083 22.370980 6.048474 -1.100009 2.841191 0.000000 0.000000 0.000000 -55.702566 -10.881263 106.754579 16.115017 -2.199226 -8.803000 16.465211 -0.115867 -0.282126 -0.701522 2.799914 0.854670 0.000000 0.000000 0.000000 10.682773 0.269083 0.006617 35.324707 1.109353 -5.330138 -8.225448 -3.968185 -1.231345 0.000000 0.000000 0.000000 13.525351 1.351756 0.318634 -0.240349 -3.644153 -20.007398 -2.333958 -10.890636 -1.572452 -63.461842 10.905077 -25.842926 50.901182 -20.920116 17.964441 0.000000 0.000000 0.000000 15.186430 1.083440 -0.716834 5.140805 22.189171 -9.895100 -10.111665 -7.979082 2.832623 -16.822211 2.150671 12.762202 24.667826 43.250885 -19.024601 0.000000 0.000000 0.000000 
-76.041588 15.242516 0.012074 0.000000 0.000000 0.000000 -56.422007 -17.356134 113.908028 -21.709510 -7.242580 -8.399922 57.948930 12.250370 -5.846862 1.115532 5.252142 -7.875581 -7.826029 -2.086389 2.783011 0.000000 0.000000 0.000000 -60.700158 -20.293950 115.241943 -38.361822 -13.747262 -44.777399 97.387665 -5.806117 7.074555 -9.750524 -1.521802 26.362841 3.021773 -0.458669 1.135009 0.000000 0.000000 0.000000 -59.348245 -16.023576 107.318842 17.378658 -2.163839 -6.677773 14.493663 -0.147640 1.310321 -1.471561 2.124883 1.793625 0.000000 0.000000 0.000000 8.922963 0.192323 1.383027 29.149567 -1.810904 -2.799974 -13.685668 -11.675769 -1.907365 0.000000 0.000000 0.000000 11.304142 1.239439 2.119971 -0.511916 -3.798176 -21.389333 -3.098635 -9.936003 -3.387419 -67.110946 24.425207 -22.592731 56.412155 -26.522851 26.306889 0.000000 0.000000 0.000000 13.019147 0.810333 0.776925 5.404663 21.876971 -10.047735 -10.904605 -9.377476 3.630416 -16.758532 9.153003 10.638505 17.507213 40.381666 -14.834312 0.000000 0.000000 0.000000 
-80.727631 16.807236 -1.108860 0.000000 0.000000 0.000000 -60.664108 -21.320796 111.967510 -21.437884 -9.031111 -2.266594 55.335621 14.387198 -5.358609 15.475153 7.343535 -13.465361 -4.976128 -1.400305 1.397664 0.000000 0.000000 0.000000 -64.482375 -23.622194 112.849683 -31.951973 -16.146246 -45.777827 83.964485 -7.705509 7.866652 -7.499227 -0.178589 28.532372 3.441503 0.416134 -0.506096 0.000000 0.000000 0.000000 -63.246548 -19.683123 105.994537 19.049198 -1.725686 -3.572386 12.414817 -0.407342 2.807212 -2.174049 1.902282 2.073416 0.000000 0.000000 0.000000 7.253762 -0.000078 2.676853 23.318667 -3.844943 -0.560307 -19.730400 -16.902766 -3.247184 0.000000 0.000000 0.000000 9.047110 0.901256 3.770989 -0.692775 -4.124947 -21.098526 -3.649722 -9.490410 -4.900307 -71.251905 34.898869 -17.161675 64.335293 -29.899925 37.045857 0.000000 0.000000 0.000000 10.611357 0.333862 2.094002 5.751828 20.509229 -10.701150 -11.890079 -11.712234 5.019243 -17.693286 14.901762 9.513116 7.361343 35.434154 -8.287023 0.000000 0.000000 0.000000 
-85.160095 18.979225 -2.220348 0.000000 0.000000 0.000000 -65.358422 -22.764884 108.432197 -21.810543 -7.861721 5.033218 52.405808 16.257903 -5.230998 26.458010 6.631150 -16.280820 -2.541756 -1.081330 0.782223 0.000000 0.000000 0.000000 -70.277982 -24.307996 109.743395 -26.489687 -18.991686 -44.911830 70.134404 -9.375341 8.649413 -3.468805 0.899647 28.193067 6.083510 1.027134 -1.410938 0.000000 0.000000 0.000000 -66.863536 -22.143530 103.138609 20.952160 -1.062648 0.042662 10.659878 -0.921393 3.934174 -1.982582 1.942189 1.748715 0.000000 0.000000 0.000000 5.950180 -0.410488 3.640496 18.432068 -5.048279 1.588595 -24.948748 -19.315910 -4.398705 0.000000 0.000000 0.000000 7.318730 0.295277 4.998526 -0.765468 -4.900233 -19.415807 -3.551908 -8.706631 -6.011178 -73.755470 40.171358 -12.354687 71.510298 -29.071341 46.537634 0.000000 0.000000 0.000000 8.529650 -0.365427 3.064618 5.994101 18.206245 -11.465697 -12.466203 -14.362691 6.334667 -18.770210 18.206627 9.762306 -2.639001 28.541954 -2.041297 0.000000 0.000000 0.000000 
-89.173141 20.824627 -3.077984 0.000000 0.000000 0.000000 -70.157053 -22.071275 104.879508 -22.543196 -4.684038 11.598977 48.156338 17.342064 -4.659231 30.313066 4.451764 -15.655429 -2.100715 -1.212709 1.225139 0.000000 0.000000 0.000000 -76.777077 -23.782953 107.149358 -23.661266 -21.016248 -43.717336 59.540760 -10.623878 9.268457 2.464191 1.190386 26.631584 7.893257 1.078035 -1.523910 0.000000 0.000000 0.000000 -70.250866 -23.594704 99.902165 22.622208 -0.451749 3.437397 9.316913 -1.572946 4.579641 -0.876995 2.406194 0.615766 0.000000 0.000000 0.000000 4.984045 -0.951629 4.190832 15.217631 -5.932669 3.971827 -28.637793 -19.429226 -4.591055 0.000000 0.000000 0.000000 6.339551 -0.474802 5.681169 -0.666541 -5.917214 -16.686311 -2.302308 -7.944365 -6.513995 -72.690575 40.476982 -11.009793 74.449943 -24.895380 51.332785 0.000000 0.000000 0.000000 7.163111 -1.078392 3.614312 6.043761 15.012515 -12.634837 -12.488695 -16.181475 7.242848 -19.674631 18.429572 11.007115 -10.571134 21.020633 2.289969 0.000000 0.000000 0.000000 
-92.769302 21.950054 -3.388374 0.000000 0.000000 0.000000 -74.068634 -20.002443 102.439655 -23.457472 -1.126804 16.091318 42.728499 16.832163 -3.555780 27.596587 1.211727 -13.369836 -3.362148 -1.726653 2.493816 0.000000 0.000000 0.000000 -82.572650 -22.797558 105.548136 -23.565983 -22.186123 -43.688205 53.619406 -11.474075 9.499315 9.565326 0.774232 24.669351 6.616463 0.676529 -1.079940 0.000000 0.000000 0.000000 -72.697979 -23.954629 97.346363 23.550680 -0.030591 6.076060 8.332997 -2.107810 4.826046 -0.443805 3.458213 -0.428623 0.000000 0.000000 0.000000 4.128391 -1.425650 4.409632 13.751883 -7.126871 6.774808 -30.642018 -18.599952 -3.669894 0.000000 0.000000 0.000000 5.880059 -1.116572 5.918303 -0.501790 -6.790265 -13.540993 -0.740978 -6.879837 -6.671773 -68.191769 37.154378 -13.081121 73.182458 -19.716553 51.929327 0.000000 0.000000 0.000000 6.383266 -1.520585 3.809544 5.830405 11.509185 -14.306321 -12.682790 -16.291227 6.881977 -20.143343 16.205997 11.995938 -16.234970 14.655132 4.630441 0.000000 0.000000 0.000000 
-95.805916 22.126499 -3.008186 0.000000 0.000000 0.000000 -77.128873 -17.006570 101.966617 -23.774509 1.705700 18.069364 36.906401 14.896743 -2.303384 20.914736 -2.265642 -10.735609 -4.724243 -2.418598 3.632772 0.000000 0.000000 0.000000 -86.530007 -21.785787 104.721546 -25.673243 -22.767184 -45.504407 52.032989 -12.219272 9.366157 16.011459 -0.189533 22.957441 3.178412 -0.010524 -0.603953 0.000000 0.000000 0.000000 -74.221835 -23.374355 96.068660 23.452619 -0.011163 7.554586 7.433099 -2.373259 4.831607 -0.205783 4.168972 -1.133353 0.000000 0.000000 0.000000 3.212068 -1.668103 4.359317 13.639913 -8.903624 9.818534 -31.214125 -18.013166 -2.032705 0.000000 0.000000 0.000000 5.568980 -1.475418 5.854001 -0.367984 -7.351441 -10.587748 0.639451 -5.405959 -6.426015 -62.725650 32.242861 -15.918126 68.918207 -15.576421 50.080576 0.000000 0.000000 0.000000 5.911178 -1.568369 3.843925 5.400530 8.169039 -16.463401 -12.943116 -15.182766 5.642126 -21.033136 12.354635 12.338721 -20.228830 10.766963 5.547930 0.000000 0.000000 0.000000 
